# xmcd
#
# Track frame offsets:
#	150
#	10223
#	24404
#	37396
#	56030
#	72591
#	85389
#	100900
#	119086
#	130397
#
# Disc length: 1933 seconds
#
# Revision: 11
# Processed by: cddbd v1.5.2PL0 Copyright (c) Steve Scherf et al.
# Submitted via: Jack! The Knife 18 Bulletproof
#
DISCID=95078b0a
DTITLE=Anne Murray - Anne Murray's Greatest Hits
DYEAR=1980
DGENRE=Country
TTITLE0=Snowbird
TTITLE1=Danny's Song
TTITLE2=A Love Song
TTITLE3=You Won't See Me
TTITLE4=You Needed Me
TTITLE5=I Just Fall In Love Again
TTITLE6=Shadows In The Moonlight
TTITLE7=Broken Hearted Me
TTITLE8=Daydream Believer
TTITLE9=Could I Have This Dance
EXTD=
EXTT0=Gene MacLellan
EXTT1=Kenny Loggins
EXTT2=George, Loggins
EXTT3=Lennon, McCartney
EXTT4=Randy Goodrum
EXTT5=Dorff, Herbstritt, Lloyd, Sklerov
EXTT6=Black, Bourke
EXTT7=Randy Goodrum
EXTT8=John Stewart
EXTT9=Holyfield, House
PLAYORDER=
